<mxfile host="" modified="2020-06-02T11:19:52.616Z" agent="5.0 (Windows NT 10.0; Win64; x64) AppleWebKit/537.36 (KHTML, like Gecko) Code/1.45.1 Chrome/78.0.3904.130 Electron/7.2.4 Safari/537.36" etag="PajWqx6j0qgtmY1H-T2o" version="13.1.3">
    <diagram id="6hGFLwfOUW9BJ-s0fimq" name="Page-1">
        <mxGraphModel dx="1723" dy="1162" grid="1" gridSize="10" guides="1" tooltips="1" connect="1" arrows="1" fold="1" page="1" pageScale="1" pageWidth="827" pageHeight="1169" math="0" shadow="0">
            <root>
                <mxCell id="0"/>
                <mxCell id="1" parent="0"/>
                <mxCell id="2" value="" style="strokeWidth=1;shadow=0;dashed=0;align=center;html=1;shape=mxgraph.mockup.containers.browserWindow;rSize=0;strokeColor=#000000;strokeColor2=#008cff;strokeColor3=#c4c4c4;mainText=,;recursiveResize=0;overflow:hidden;overflow=visible;noLabel=0;backgroundOutline=0;collapsible=0;container=0;autosize=0;fixDash=0;snapToPoint=0;portConstraintRotation=0;portConstraint=none;connectable=1;allowArrows=1;moveCells=0;" vertex="1" parent="1">
                    <mxGeometry x="60" y="30" width="370" height="440" as="geometry">
                        <mxRectangle x="470" y="145" width="50" height="40" as="alternateBounds"/>
                    </mxGeometry>
                </mxCell>
                <mxCell id="3" value="Blocks" style="strokeWidth=1;shadow=0;dashed=0;align=center;html=1;shape=mxgraph.mockup.containers.anchor;fontSize=17;fontColor=#666666;align=left;" vertex="1" parent="2">
                    <mxGeometry x="60" y="12" width="110" height="26" as="geometry"/>
                </mxCell>
                <mxCell id="4" value="https://explorer/btc/block/" style="strokeWidth=1;shadow=0;dashed=0;align=center;html=1;shape=mxgraph.mockup.containers.anchor;rSize=0;fontSize=17;fontColor=#666666;align=left;" vertex="1" parent="2">
                    <mxGeometry x="130" y="60" width="250" height="26" as="geometry"/>
                </mxCell>
                <mxCell id="5" value="" style="rounded=0;whiteSpace=wrap;html=1;align=left;" vertex="1" parent="2">
                    <mxGeometry y="110" width="370" height="40" as="geometry"/>
                </mxCell>
                <mxCell id="6" value="&lt;b&gt;&lt;font style=&quot;font-size: 15px&quot;&gt;Explorer&lt;/font&gt;&lt;/b&gt;" style="text;html=1;strokeColor=none;fillColor=none;align=center;verticalAlign=middle;whiteSpace=wrap;rounded=0;" vertex="1" parent="2">
                    <mxGeometry y="110" width="90" height="40" as="geometry"/>
                </mxCell>
                <mxCell id="7" value="Search" style="strokeWidth=1;shadow=0;dashed=0;align=center;html=1;shape=mxgraph.mockup.forms.searchBox;strokeColor=#999999;mainText=;strokeColor2=#008cff;fontColor=#666666;fontSize=17;align=left;spacingLeft=3;" vertex="1" parent="2">
                    <mxGeometry x="210" y="115" width="150" height="30" as="geometry"/>
                </mxCell>
                <mxCell id="8" value="" style="rounded=0;whiteSpace=wrap;html=1;" vertex="1" parent="2">
                    <mxGeometry x="20" y="165" width="310" height="95" as="geometry"/>
                </mxCell>
                <mxCell id="9" value="" style="shape=image;verticalLabelPosition=bottom;labelBackgroundColor=#ffffff;verticalAlign=top;aspect=fixed;imageAspect=0;image=data:image/svg+xml,PHN2ZyB4bWxucz0iaHR0cDovL3d3dy53My5vcmcvMjAwMC9zdmciIHdpZHRoPSIzMiIgaGVpZ2h0PSIzMiIgdmlld0JveD0iMCAwIDMyIDMyIj48cGF0aCBmaWxsLXJ1bGU9ImV2ZW5vZGQiIGQ9Ik0xNiAzMkM3LjE2MyAzMiAwIDI0LjgzNyAwIDE2UzcuMTYzIDAgMTYgMHMxNiA3LjE2MyAxNiAxNi03LjE2MyAxNi0xNiAxNnptNy4xODktMTcuOThjLjMxNC0yLjA5Ni0xLjI4My0zLjIyMy0zLjQ2NS0zLjk3NWwuNzA4LTIuODQtMS43MjgtLjQzLS42OSAyLjc2NWMtLjQ1NC0uMTE0LS45Mi0uMjItMS4zODUtLjMyNmwuNjk1LTIuNzgzTDE1LjU5NiA2bC0uNzA4IDIuODM5Yy0uMzc2LS4wODYtLjc0Ni0uMTctMS4xMDQtLjI2bC4wMDItLjAwOS0yLjM4NC0uNTk1LS40NiAxLjg0NnMxLjI4My4yOTQgMS4yNTYuMzEyYy43LjE3NS44MjYuNjM4LjgwNSAxLjAwNmwtLjgwNiAzLjIzNWMuMDQ4LjAxMi4xMS4wMy4xOC4wNTdsLS4xODMtLjA0NS0xLjEzIDQuNTMyYy0uMDg2LjIxMi0uMzAzLjUzMS0uNzkzLjQxLjAxOC4wMjUtMS4yNTYtLjMxMy0xLjI1Ni0uMzEzbC0uODU4IDEuOTc4IDIuMjUuNTYxYy40MTguMTA1LjgyOC4yMTUgMS4yMzEuMzE4bC0uNzE1IDIuODcyIDEuNzI3LjQzLjcwOC0yLjg0Yy40NzIuMTI3LjkzLjI0NSAxLjM3OC4zNTdsLS43MDYgMi44MjggMS43MjguNDMuNzE1LTIuODY2YzIuOTQ4LjU1OCA1LjE2NC4zMzMgNi4wOTctMi4zMzMuNzUyLTIuMTQ2LS4wMzctMy4zODUtMS41ODgtNC4xOTIgMS4xMy0uMjYgMS45OC0xLjAwMyAyLjIwNy0yLjUzOHptLTMuOTUgNS41MzhjLS41MzMgMi4xNDctNC4xNDguOTg2LTUuMzIuNjk1bC45NS0zLjgwNWMxLjE3Mi4yOTMgNC45MjkuODcyIDQuMzcgMy4xMXptLjUzNS01LjU2OWMtLjQ4NyAxLjk1My0zLjQ5NS45Ni00LjQ3LjcxN2wuODYtMy40NWMuOTc1LjI0MyA0LjExOC42OTYgMy42MSAyLjczM3oiLz48L3N2Zz4=;" vertex="1" parent="2">
                    <mxGeometry x="290" y="175" width="32" height="32" as="geometry"/>
                </mxCell>
                <mxCell id="10" value="&lt;h1 style=&quot;line-height: 50%&quot;&gt;&lt;font style=&quot;font-size: 19px&quot;&gt;Block #42&lt;/font&gt;&lt;/h1&gt;&lt;p&gt;Mined on: 14.5.2010&lt;br&gt;Transactions confirmed: 145&lt;br&gt;Size: 1500 bytes&lt;br&gt;&lt;br&gt;&lt;/p&gt;" style="text;html=1;strokeColor=none;fillColor=none;spacing=5;spacingTop=-20;whiteSpace=wrap;overflow=hidden;rounded=0;" vertex="1" parent="2">
                    <mxGeometry x="40" y="168.75" width="190" height="87.5" as="geometry"/>
                </mxCell>
                <mxCell id="11" value="" style="rounded=0;whiteSpace=wrap;html=1;" vertex="1" parent="2">
                    <mxGeometry x="20" y="275" width="310" height="95" as="geometry"/>
                </mxCell>
                <mxCell id="12" value="" style="shape=image;verticalLabelPosition=bottom;labelBackgroundColor=#ffffff;verticalAlign=top;aspect=fixed;imageAspect=0;image=data:image/svg+xml,PHN2ZyB4bWxucz0iaHR0cDovL3d3dy53My5vcmcvMjAwMC9zdmciIHdpZHRoPSIzMiIgaGVpZ2h0PSIzMiIgdmlld0JveD0iMCAwIDMyIDMyIj48cGF0aCBmaWxsLXJ1bGU9ImV2ZW5vZGQiIGQ9Ik0xNiAzMkM3LjE2MyAzMiAwIDI0LjgzNyAwIDE2UzcuMTYzIDAgMTYgMHMxNiA3LjE2MyAxNiAxNi03LjE2MyAxNi0xNiAxNnptNy4xODktMTcuOThjLjMxNC0yLjA5Ni0xLjI4My0zLjIyMy0zLjQ2NS0zLjk3NWwuNzA4LTIuODQtMS43MjgtLjQzLS42OSAyLjc2NWMtLjQ1NC0uMTE0LS45Mi0uMjItMS4zODUtLjMyNmwuNjk1LTIuNzgzTDE1LjU5NiA2bC0uNzA4IDIuODM5Yy0uMzc2LS4wODYtLjc0Ni0uMTctMS4xMDQtLjI2bC4wMDItLjAwOS0yLjM4NC0uNTk1LS40NiAxLjg0NnMxLjI4My4yOTQgMS4yNTYuMzEyYy43LjE3NS44MjYuNjM4LjgwNSAxLjAwNmwtLjgwNiAzLjIzNWMuMDQ4LjAxMi4xMS4wMy4xOC4wNTdsLS4xODMtLjA0NS0xLjEzIDQuNTMyYy0uMDg2LjIxMi0uMzAzLjUzMS0uNzkzLjQxLjAxOC4wMjUtMS4yNTYtLjMxMy0xLjI1Ni0uMzEzbC0uODU4IDEuOTc4IDIuMjUuNTYxYy40MTguMTA1LjgyOC4yMTUgMS4yMzEuMzE4bC0uNzE1IDIuODcyIDEuNzI3LjQzLjcwOC0yLjg0Yy40NzIuMTI3LjkzLjI0NSAxLjM3OC4zNTdsLS43MDYgMi44MjggMS43MjguNDMuNzE1LTIuODY2YzIuOTQ4LjU1OCA1LjE2NC4zMzMgNi4wOTctMi4zMzMuNzUyLTIuMTQ2LS4wMzctMy4zODUtMS41ODgtNC4xOTIgMS4xMy0uMjYgMS45OC0xLjAwMyAyLjIwNy0yLjUzOHptLTMuOTUgNS41MzhjLS41MzMgMi4xNDctNC4xNDguOTg2LTUuMzIuNjk1bC45NS0zLjgwNWMxLjE3Mi4yOTMgNC45MjkuODcyIDQuMzcgMy4xMXptLjUzNS01LjU2OWMtLjQ4NyAxLjk1My0zLjQ5NS45Ni00LjQ3LjcxN2wuODYtMy40NWMuOTc1LjI0MyA0LjExOC42OTYgMy42MSAyLjczM3oiLz48L3N2Zz4=;" vertex="1" parent="2">
                    <mxGeometry x="290" y="285" width="32" height="32" as="geometry"/>
                </mxCell>
                <mxCell id="13" value="&lt;h1 style=&quot;line-height: 50%&quot;&gt;&lt;font style=&quot;font-size: 19px&quot;&gt;Block #43&lt;/font&gt;&lt;/h1&gt;&lt;p&gt;Mined on: 14.5.2010&lt;br&gt;Transactions confirmed: 145&lt;br&gt;Size: 1500 bytes&lt;br&gt;&lt;/p&gt;" style="text;html=1;strokeColor=none;fillColor=none;spacing=5;spacingTop=-20;whiteSpace=wrap;overflow=hidden;rounded=0;" vertex="1" parent="2">
                    <mxGeometry x="40" y="278.75" width="190" height="87.5" as="geometry"/>
                </mxCell>
                <mxCell id="14" value="" style="verticalLabelPosition=bottom;shadow=0;dashed=0;align=center;html=1;verticalAlign=top;strokeWidth=1;shape=mxgraph.mockup.navigation.scrollBar;strokeColor=#999999;barPos=20;fillColor2=#99ddff;strokeColor2=none;direction=north;rounded=1;glass=0;comic=0;" vertex="1" parent="2">
                    <mxGeometry x="350" y="150" width="20" height="290" as="geometry"/>
                </mxCell>
                <mxCell id="15" value="" style="rounded=0;whiteSpace=wrap;html=1;strokeColor=#000000;glass=0;comic=0;shadow=0;imageAspect=0;overflow=visible;noLabel=0;absoluteArcSize=0;backgroundOutline=0;imageWidth=24;direction=east;arcSize=12;perimeterSpacing=0;" vertex="1" parent="2">
                    <mxGeometry x="20" y="392" width="310" height="48" as="geometry"/>
                </mxCell>
                <mxCell id="16" value="" style="shape=image;verticalLabelPosition=bottom;labelBackgroundColor=#ffffff;verticalAlign=top;aspect=fixed;imageAspect=0;image=data:image/svg+xml,PHN2ZyB4bWxucz0iaHR0cDovL3d3dy53My5vcmcvMjAwMC9zdmciIHdpZHRoPSIzMiIgaGVpZ2h0PSIzMiIgdmlld0JveD0iMCAwIDMyIDMyIj48cGF0aCBmaWxsLXJ1bGU9ImV2ZW5vZGQiIGQ9Ik0xNiAzMkM3LjE2MyAzMiAwIDI0LjgzNyAwIDE2UzcuMTYzIDAgMTYgMHMxNiA3LjE2MyAxNiAxNi03LjE2MyAxNi0xNiAxNnptNy4xODktMTcuOThjLjMxNC0yLjA5Ni0xLjI4My0zLjIyMy0zLjQ2NS0zLjk3NWwuNzA4LTIuODQtMS43MjgtLjQzLS42OSAyLjc2NWMtLjQ1NC0uMTE0LS45Mi0uMjItMS4zODUtLjMyNmwuNjk1LTIuNzgzTDE1LjU5NiA2bC0uNzA4IDIuODM5Yy0uMzc2LS4wODYtLjc0Ni0uMTctMS4xMDQtLjI2bC4wMDItLjAwOS0yLjM4NC0uNTk1LS40NiAxLjg0NnMxLjI4My4yOTQgMS4yNTYuMzEyYy43LjE3NS44MjYuNjM4LjgwNSAxLjAwNmwtLjgwNiAzLjIzNWMuMDQ4LjAxMi4xMS4wMy4xOC4wNTdsLS4xODMtLjA0NS0xLjEzIDQuNTMyYy0uMDg2LjIxMi0uMzAzLjUzMS0uNzkzLjQxLjAxOC4wMjUtMS4yNTYtLjMxMy0xLjI1Ni0uMzEzbC0uODU4IDEuOTc4IDIuMjUuNTYxYy40MTguMTA1LjgyOC4yMTUgMS4yMzEuMzE4bC0uNzE1IDIuODcyIDEuNzI3LjQzLjcwOC0yLjg0Yy40NzIuMTI3LjkzLjI0NSAxLjM3OC4zNTdsLS43MDYgMi44MjggMS43MjguNDMuNzE1LTIuODY2YzIuOTQ4LjU1OCA1LjE2NC4zMzMgNi4wOTctMi4zMzMuNzUyLTIuMTQ2LS4wMzctMy4zODUtMS41ODgtNC4xOTIgMS4xMy0uMjYgMS45OC0xLjAwMyAyLjIwNy0yLjUzOHptLTMuOTUgNS41MzhjLS41MzMgMi4xNDctNC4xNDguOTg2LTUuMzIuNjk1bC45NS0zLjgwNWMxLjE3Mi4yOTMgNC45MjkuODcyIDQuMzcgMy4xMXptLjUzNS01LjU2OWMtLjQ4NyAxLjk1My0zLjQ5NS45Ni00LjQ3LjcxN2wuODYtMy40NWMuOTc1LjI0MyA0LjExOC42OTYgMy42MSAyLjczM3oiLz48L3N2Zz4=;" vertex="1" parent="2">
                    <mxGeometry x="290" y="397.05263157894734" width="32" height="32" as="geometry"/>
                </mxCell>
                <mxCell id="17" value="&lt;h1 style=&quot;line-height: 50%&quot;&gt;&lt;font style=&quot;font-size: 19px&quot;&gt;Block #44&lt;/font&gt;&lt;/h1&gt;&lt;p&gt;Mined on: 14.5.2010&lt;br&gt;Transactions confirmed: 145&lt;br&gt;Size: 1500 bytes&lt;br&gt;&lt;/p&gt;" style="text;html=1;strokeColor=none;fillColor=none;spacing=5;spacingTop=-20;whiteSpace=wrap;overflow=hidden;rounded=0;" vertex="1" parent="2">
                    <mxGeometry x="40" y="393.89473684210526" width="190" height="44.21052631578947" as="geometry"/>
                </mxCell>
            </root>
        </mxGraphModel>
    </diagram>
</mxfile>